# xmcd
#
# Track frame offsets:
#        150
#        16937
#        33342
#        49130
#        71847
#        88586
#        106731
#        124853
#        148725
#        166853
#        185991
#        200289
#
# Disc length: 3072 seconds
#
# Revision: 0
# Processed by: cddbd v1.5.1PL0 Copyright (c) Steve Scherf et al.
# Submitted via: ExactAudioCopy v0.95a5
#
DISCID=a60bfe0c
DTITLE=Ben Jelen - Give It All Away
DYEAR=2004
DGENRE=Rock
TTITLE0=Come On
TTITLE1=Rocks
TTITLE2=She'll Hear You
TTITLE3=Give It Away
TTITLE4=Every Step
TTITLE5=Christine
TTITLE6=Wicked Little Town
TTITLE7=Falling Down
TTITLE8=Stay
TTITLE9=Criminal
TTITLE10=Slow Down
TTITLE11=Setting of the Sun
EXTD=
EXTT0=
EXTT1=
EXTT2=
EXTT3=
EXTT4=
EXTT5=
EXTT6=
EXTT7=
EXTT8=
EXTT9=
EXTT10=
EXTT11=
PLAYORDER=
